<svg version="1.2" xmlns="http://www.w3.org/2000/svg" viewBox="0 0 700 700" width="700" height="700">
    <title>safari-pinned-tab-svg</title>
    <style>
        .s0 { fill: #cc0033 }
        .s1 { fill: #ffffff }
        .s2 { fill: #000000 }
    </style>
    <path id="Form 1" class="s0" d="m-6-5h713v717h-713z"/>
    <path id="Form 2" class="s1" d="m362 652c-138.3 0-250-111.8-250-250 0-138.3 111.8-250 250-250 138.3 0 250 111.8 250 250 0 138.3-111.8 250-250 250z"/>
    <path id="Form 3" class="s1" d="m482 263c-69.1 0-125-55.9-125-125 0-69.1 55.9-125 125-125 69.1 0 125 55.9 125 125 0 69.1-55.9 125-125 125z"/>
    <g id="Layer">
        <path id="Layer" fill-rule="evenodd" class="s2" d="m506 7.5c31.2 5 60.7 21.3 80.7 44.5 43.2 50.2 44.5 123.3 3 174.1l-4.6 5.7 7.2 10.9c23.2 35.2 38 73.2 44.6 114.3 21.7 135-53.5 266.8-180.9 317-21.6 8.5-42.4 13.8-68.5 17.7-18.9 2.7-58.2 2.5-78.5-0.6-63.8-9.5-119.5-37.4-164.6-82.5-33-33-56.6-71.4-71-115.3-37.1-113.6-0.6-238.6 92-314.7 28.6-23.6 65.6-43.5 99.7-53.6 23.9-7.1 42.7-10.3 69.4-12 9.4-0.6 17.6-1.3 18.3-1.5 0.6-0.2 1.2-1.3 1.2-2.4 0-1 1.6-6.6 3.6-12.3 16.3-46.9 56.6-80.9 105.9-89.2 10.9-1.9 31-1.9 42.5-0.1zm-37.5 20.2c-21 2.9-44.1 14-60.5 29.1-28.1 25.8-41.8 65.1-35.6 102 10.5 62.8 68.7 104.9 131.1 94.7 45-7.3 80.8-40.3 92.6-85.2 2.6-10.1 3.6-32.8 1.9-44.4-3.3-23.1-13.8-44.4-30.4-61.7-17.3-18-38.6-29.6-62.4-33.7-7.8-1.4-29.1-1.8-36.7-0.8zm-115.7 140.3l-10.7 0.1c-11 0.2-11.5 0.2-24.6 2-32.5 4.2-67.6 17.3-94.8 35.2-59.6 39.1-97 98.3-106.3 168.2-2 14.8-1.9 44.7 0.1 60 8.5 64 41.4 120.1 93 158.6 52.7 39.2 118.8 54.5 184 42.4 78.6-14.6 144.4-68.7 175.1-144 1.8-4.4 3.1-8.1 3-8.2-0.2-0.2-2.7 1-5.7 2.7-7.2 3.9-21.5 8.5-31.2 10-12.3 2-34 0.8-45.2-2.4-25.3-7.5-47.1-23.4-61.3-45-24.8-37.9-22.1-88.8 6.6-124.7 26.5-33.1 71.5-47.4 112.2-35.5 4.7 1.3 8.6 2.3 8.8 2.1 0.4-0.3-10.7-18.4-13.8-22.5l-1.8-2.3-10.8 3.6c-17.8 5.9-25.8 7.1-44.4 7.1-23.9-0.1-39.8-3.8-60.4-14-34.3-17.2-61.1-50.2-70.2-86.7zm75 198.5c-1.8 6.6-2.1 10.7-2.1 23.5 0 14 0.2 16.3 2.7 24.5 8.5 27.9 25.5 47.8 50.9 59.5 36 16.5 78.1 8.4 105.3-20.2 17.3-18.3 25.6-38.8 25.6-63.8 0.1-15.9-2.4-26.7-9.2-40.6-13.3-27.4-37.6-45.7-67.7-50.9-47.1-8.2-92.7 21.2-105.5 68z"/>
        <path id="Layer" fill-rule="evenodd" class="s2" d="m507.8 60.9c29.5 8.6 52.5 33.3 58.6 63.3 3.1 15 1.5 33.7-4 47.3-18.4 45.2-70.6 65.2-113.9 43.6-16.9-8.5-28.5-19.7-37-36.2-7-13.5-8.9-21.9-8.9-37.9 0-11 0.4-15 2.2-21.5 8.8-30.6 32.3-53.1 62.7-59.9 9.9-2.2 30.4-1.5 40.3 1.3zm-39.6 10c-4 1-11.2 3.8-16 6.1-16.9 8.4-32 27-36.7 45.5-10.2 39.2 13.7 78.7 53.5 88.6 3 0.8 10.5 1.4 16.5 1.4 20.5-0.1 35.3-6.2 50.1-21 7.8-7.8 9.8-10.4 13.7-18.5 7.5-15.6 9.6-31.5 6.2-47.5-1.8-8.6-8.9-23-15-30.7-8.8-10.9-25.8-21.3-40-24.3-9.3-2-23.3-1.8-32.3 0.4z"/>
        <path id="Layer" fill-rule="evenodd" class="s2" d="m291.7 217.5c26.9 1.2 49.8 10.7 68.5 28.4 10.9 10.3 17.4 18.9 23.2 30.6 14.9 30.1 15 64 0.1 94-6.3 12.9-12.7 21.6-22.4 30.8-41.2 38.8-105 38.8-146.2 0-9.8-9.2-16.1-18-22.4-30.8-11.4-23.6-14.1-48.9-7.6-73.5 11.1-41.9 46.6-73.1 89.6-78.9 3.9-0.6 11.6-0.8 17.2-0.6zm-61.7 34.1c-22.8 18.1-36.7 49.1-34.6 77.4 3.1 41.8 30.8 74.9 71.1 85.1 12.4 3.1 30.3 3.1 42.9 0.1 27.9-6.9 50-25 62.7-51.5 6.3-13.3 8.2-21.9 8.2-38.2 0.1-15.3-1.1-21.8-6.3-35.3-6.5-17-21.9-35-37.8-44.6-9.7-5.8-24.7-11.1-35.5-12.5-25.4-3.5-50.2 3.4-70.7 19.5z"/>
        <path id="Layer" class="s2" d="m295.1 283c22.1 4.1 37.7 25.9 33.9 47.3-6 33.3-45.2 46.6-69.5 23.6-12.9-12.2-16.6-31.2-9.1-47.5 5.1-11 17.7-21 29.6-23.3 6.3-1.2 8.9-1.2 15.1-0.1z"/>
        <path id="Layer" class="s2" d="m545.5 359.1c21.8 20.1 16.5 55.5-10.3 68.2-6.3 3-7.4 3.2-17.7 3.2-10.4 0-11.4-0.2-17.6-3.2-12.8-6.3-22.4-20.1-23.6-34-1.6-20 11.4-38.5 30.7-43.7 13.6-3.6 28.2 0 38.5 9.5z"/>
    </g>
</svg>
